<mxfile host="app.diagrams.net" modified="2023-05-24T00:42:05.428Z" agent="Mozilla/5.0 (Windows NT 10.0; Win64; x64) AppleWebKit/537.36 (KHTML, like Gecko) Chrome/113.0.0.0 Safari/537.36" etag="OmXhm-7HZflJQdJEZ4rH" version="21.3.2" type="device">
  <diagram name="Σελίδα-1" id="HS7CzFAHFL2pYtwxHA1G">
    <mxGraphModel dx="1607" dy="2290" grid="1" gridSize="10" guides="1" tooltips="1" connect="1" arrows="1" fold="1" page="1" pageScale="1" pageWidth="1169" pageHeight="1654" math="0" shadow="0">
      <root>
        <mxCell id="0" />
        <mxCell id="1" parent="0" />
        <mxCell id="r8or9TRa4YRGoBzEQeFI-2" value="" style="shape=umlLifeline;perimeter=lifelinePerimeter;whiteSpace=wrap;html=1;container=1;dropTarget=0;collapsible=0;recursiveResize=0;outlineConnect=0;portConstraint=eastwest;newEdgeStyle={&quot;edgeStyle&quot;:&quot;elbowEdgeStyle&quot;,&quot;elbow&quot;:&quot;vertical&quot;,&quot;curved&quot;:0,&quot;rounded&quot;:0};participant=umlBoundary;" vertex="1" parent="1">
          <mxGeometry x="840" y="63" width="50" height="937" as="geometry" />
        </mxCell>
        <mxCell id="r8or9TRa4YRGoBzEQeFI-3" value="" style="shape=umlLifeline;perimeter=lifelinePerimeter;whiteSpace=wrap;html=1;container=1;dropTarget=0;collapsible=0;recursiveResize=0;outlineConnect=0;portConstraint=eastwest;newEdgeStyle={&quot;edgeStyle&quot;:&quot;elbowEdgeStyle&quot;,&quot;elbow&quot;:&quot;vertical&quot;,&quot;curved&quot;:0,&quot;rounded&quot;:0};participant=umlBoundary;" vertex="1" parent="1">
          <mxGeometry x="720" y="56.5" width="50" height="963.5" as="geometry" />
        </mxCell>
        <mxCell id="r8or9TRa4YRGoBzEQeFI-68" value="" style="html=1;points=[];perimeter=orthogonalPerimeter;outlineConnect=0;targetShapes=umlLifeline;portConstraint=eastwest;newEdgeStyle={&quot;edgeStyle&quot;:&quot;elbowEdgeStyle&quot;,&quot;elbow&quot;:&quot;vertical&quot;,&quot;curved&quot;:0,&quot;rounded&quot;:0};" vertex="1" parent="r8or9TRa4YRGoBzEQeFI-3">
          <mxGeometry x="20" y="373" width="10" height="397" as="geometry" />
        </mxCell>
        <mxCell id="r8or9TRa4YRGoBzEQeFI-4" value="" style="shape=umlLifeline;perimeter=lifelinePerimeter;whiteSpace=wrap;html=1;container=1;dropTarget=0;collapsible=0;recursiveResize=0;outlineConnect=0;portConstraint=eastwest;newEdgeStyle={&quot;edgeStyle&quot;:&quot;elbowEdgeStyle&quot;,&quot;elbow&quot;:&quot;vertical&quot;,&quot;curved&quot;:0,&quot;rounded&quot;:0};participant=umlBoundary;" vertex="1" parent="1">
          <mxGeometry x="610" y="59.5" width="50" height="900.5" as="geometry" />
        </mxCell>
        <mxCell id="r8or9TRa4YRGoBzEQeFI-67" value="" style="html=1;points=[];perimeter=orthogonalPerimeter;outlineConnect=0;targetShapes=umlLifeline;portConstraint=eastwest;newEdgeStyle={&quot;edgeStyle&quot;:&quot;elbowEdgeStyle&quot;,&quot;elbow&quot;:&quot;vertical&quot;,&quot;curved&quot;:0,&quot;rounded&quot;:0};" vertex="1" parent="r8or9TRa4YRGoBzEQeFI-4">
          <mxGeometry x="20" y="320.5" width="10" height="49.5" as="geometry" />
        </mxCell>
        <mxCell id="r8or9TRa4YRGoBzEQeFI-5" value="" style="shape=umlLifeline;perimeter=lifelinePerimeter;whiteSpace=wrap;html=1;container=1;dropTarget=0;collapsible=0;recursiveResize=0;outlineConnect=0;portConstraint=eastwest;newEdgeStyle={&quot;edgeStyle&quot;:&quot;elbowEdgeStyle&quot;,&quot;elbow&quot;:&quot;vertical&quot;,&quot;curved&quot;:0,&quot;rounded&quot;:0};participant=umlBoundary;" vertex="1" parent="1">
          <mxGeometry x="420" y="60" width="50" height="920" as="geometry" />
        </mxCell>
        <mxCell id="r8or9TRa4YRGoBzEQeFI-65" value="" style="html=1;points=[];perimeter=orthogonalPerimeter;outlineConnect=0;targetShapes=umlLifeline;portConstraint=eastwest;newEdgeStyle={&quot;edgeStyle&quot;:&quot;elbowEdgeStyle&quot;,&quot;elbow&quot;:&quot;vertical&quot;,&quot;curved&quot;:0,&quot;rounded&quot;:0};" vertex="1" parent="r8or9TRa4YRGoBzEQeFI-5">
          <mxGeometry x="20" y="290" width="10" height="10" as="geometry" />
        </mxCell>
        <mxCell id="r8or9TRa4YRGoBzEQeFI-6" value="" style="shape=umlLifeline;perimeter=lifelinePerimeter;whiteSpace=wrap;html=1;container=1;dropTarget=0;collapsible=0;recursiveResize=0;outlineConnect=0;portConstraint=eastwest;newEdgeStyle={&quot;edgeStyle&quot;:&quot;elbowEdgeStyle&quot;,&quot;elbow&quot;:&quot;vertical&quot;,&quot;curved&quot;:0,&quot;rounded&quot;:0};participant=umlBoundary;" vertex="1" parent="1">
          <mxGeometry x="140" y="60" width="50" height="850" as="geometry" />
        </mxCell>
        <mxCell id="r8or9TRa4YRGoBzEQeFI-62" value="" style="html=1;points=[];perimeter=orthogonalPerimeter;outlineConnect=0;targetShapes=umlLifeline;portConstraint=eastwest;newEdgeStyle={&quot;edgeStyle&quot;:&quot;elbowEdgeStyle&quot;,&quot;elbow&quot;:&quot;vertical&quot;,&quot;curved&quot;:0,&quot;rounded&quot;:0};" vertex="1" parent="r8or9TRa4YRGoBzEQeFI-6">
          <mxGeometry x="20" y="90" width="10" height="570" as="geometry" />
        </mxCell>
        <mxCell id="r8or9TRa4YRGoBzEQeFI-7" value="σελ&lt;br&gt;λίστα&amp;nbsp;&lt;br&gt;καταστημάτων" style="text;html=1;align=center;verticalAlign=middle;resizable=0;points=[];autosize=1;strokeColor=none;fillColor=none;" vertex="1" parent="1">
          <mxGeometry x="110" y="3" width="100" height="60" as="geometry" />
        </mxCell>
        <mxCell id="r8or9TRa4YRGoBzEQeFI-8" value="σελ&lt;br&gt;διαθεσιμα&amp;nbsp;&lt;br&gt;προιοντα" style="text;html=1;align=center;verticalAlign=middle;resizable=0;points=[];autosize=1;strokeColor=none;fillColor=none;" vertex="1" parent="1">
          <mxGeometry x="405" width="80" height="60" as="geometry" />
        </mxCell>
        <mxCell id="r8or9TRa4YRGoBzEQeFI-9" value="" style="shape=umlLifeline;perimeter=lifelinePerimeter;whiteSpace=wrap;html=1;container=1;dropTarget=0;collapsible=0;recursiveResize=0;outlineConnect=0;portConstraint=eastwest;newEdgeStyle={&quot;edgeStyle&quot;:&quot;elbowEdgeStyle&quot;,&quot;elbow&quot;:&quot;vertical&quot;,&quot;curved&quot;:0,&quot;rounded&quot;:0};participant=umlEntity;" vertex="1" parent="1">
          <mxGeometry x="240" y="60" width="40" height="840" as="geometry" />
        </mxCell>
        <mxCell id="r8or9TRa4YRGoBzEQeFI-63" value="" style="html=1;points=[];perimeter=orthogonalPerimeter;outlineConnect=0;targetShapes=umlLifeline;portConstraint=eastwest;newEdgeStyle={&quot;edgeStyle&quot;:&quot;elbowEdgeStyle&quot;,&quot;elbow&quot;:&quot;vertical&quot;,&quot;curved&quot;:0,&quot;rounded&quot;:0};" vertex="1" parent="r8or9TRa4YRGoBzEQeFI-9">
          <mxGeometry x="15" y="90" width="10" height="170" as="geometry" />
        </mxCell>
        <mxCell id="r8or9TRa4YRGoBzEQeFI-10" value="λιστα&lt;br&gt;καταστηματων&lt;br&gt;και&lt;br&gt;προιοντων" style="text;html=1;align=center;verticalAlign=middle;resizable=0;points=[];autosize=1;strokeColor=none;fillColor=none;" vertex="1" parent="1">
          <mxGeometry x="200" y="-12" width="100" height="70" as="geometry" />
        </mxCell>
        <mxCell id="r8or9TRa4YRGoBzEQeFI-11" value="" style="shape=umlLifeline;perimeter=lifelinePerimeter;whiteSpace=wrap;html=1;container=1;dropTarget=0;collapsible=0;recursiveResize=0;outlineConnect=0;portConstraint=eastwest;newEdgeStyle={&quot;edgeStyle&quot;:&quot;elbowEdgeStyle&quot;,&quot;elbow&quot;:&quot;vertical&quot;,&quot;curved&quot;:0,&quot;rounded&quot;:0};participant=umlEntity;" vertex="1" parent="1">
          <mxGeometry x="330" y="58" width="40" height="922" as="geometry" />
        </mxCell>
        <mxCell id="r8or9TRa4YRGoBzEQeFI-64" value="" style="html=1;points=[];perimeter=orthogonalPerimeter;outlineConnect=0;targetShapes=umlLifeline;portConstraint=eastwest;newEdgeStyle={&quot;edgeStyle&quot;:&quot;elbowEdgeStyle&quot;,&quot;elbow&quot;:&quot;vertical&quot;,&quot;curved&quot;:0,&quot;rounded&quot;:0};" vertex="1" parent="r8or9TRa4YRGoBzEQeFI-11">
          <mxGeometry x="15" y="142" width="10" height="18" as="geometry" />
        </mxCell>
        <mxCell id="r8or9TRa4YRGoBzEQeFI-12" value="" style="shape=umlLifeline;perimeter=lifelinePerimeter;whiteSpace=wrap;html=1;container=1;dropTarget=0;collapsible=0;recursiveResize=0;outlineConnect=0;portConstraint=eastwest;newEdgeStyle={&quot;edgeStyle&quot;:&quot;elbowEdgeStyle&quot;,&quot;elbow&quot;:&quot;vertical&quot;,&quot;curved&quot;:0,&quot;rounded&quot;:0};participant=umlActor;" vertex="1" parent="1">
          <mxGeometry x="40" y="50" width="20" height="990" as="geometry" />
        </mxCell>
        <mxCell id="r8or9TRa4YRGoBzEQeFI-61" value="" style="html=1;points=[];perimeter=orthogonalPerimeter;outlineConnect=0;targetShapes=umlLifeline;portConstraint=eastwest;newEdgeStyle={&quot;edgeStyle&quot;:&quot;elbowEdgeStyle&quot;,&quot;elbow&quot;:&quot;vertical&quot;,&quot;curved&quot;:0,&quot;rounded&quot;:0};" vertex="1" parent="r8or9TRa4YRGoBzEQeFI-12">
          <mxGeometry x="5" y="220" width="10" height="330" as="geometry" />
        </mxCell>
        <mxCell id="r8or9TRa4YRGoBzEQeFI-14" value="getShopData()" style="endArrow=classic;html=1;rounded=0;" edge="1" parent="1" source="r8or9TRa4YRGoBzEQeFI-6" target="r8or9TRa4YRGoBzEQeFI-9">
          <mxGeometry x="-0.0402" y="10" width="50" height="50" relative="1" as="geometry">
            <mxPoint x="210" y="260" as="sourcePoint" />
            <mxPoint x="260" y="210" as="targetPoint" />
            <Array as="points">
              <mxPoint x="230" y="150" />
            </Array>
            <mxPoint as="offset" />
          </mxGeometry>
        </mxCell>
        <mxCell id="r8or9TRa4YRGoBzEQeFI-15" value="retShopData()" style="endArrow=classic;html=1;rounded=0;dashed=1;" edge="1" parent="1" source="r8or9TRa4YRGoBzEQeFI-9" target="r8or9TRa4YRGoBzEQeFI-6">
          <mxGeometry x="0.0402" y="-10" width="50" height="50" relative="1" as="geometry">
            <mxPoint x="210" y="260" as="sourcePoint" />
            <mxPoint x="260" y="210" as="targetPoint" />
            <Array as="points">
              <mxPoint x="210" y="180" />
            </Array>
            <mxPoint as="offset" />
          </mxGeometry>
        </mxCell>
        <mxCell id="r8or9TRa4YRGoBzEQeFI-18" value="chooseShop()" style="endArrow=classic;html=1;rounded=0;" edge="1" parent="1" source="r8or9TRa4YRGoBzEQeFI-12" target="r8or9TRa4YRGoBzEQeFI-6">
          <mxGeometry x="0.0536" y="10" width="50" height="50" relative="1" as="geometry">
            <mxPoint x="210" y="260" as="sourcePoint" />
            <mxPoint x="260" y="210" as="targetPoint" />
            <Array as="points">
              <mxPoint x="130" y="270" />
            </Array>
            <mxPoint as="offset" />
          </mxGeometry>
        </mxCell>
        <mxCell id="r8or9TRa4YRGoBzEQeFI-19" value="υπολοιπο&lt;br&gt;χρηστη" style="text;html=1;align=center;verticalAlign=middle;resizable=0;points=[];autosize=1;strokeColor=none;fillColor=none;" vertex="1" parent="1">
          <mxGeometry x="305" y="3" width="70" height="40" as="geometry" />
        </mxCell>
        <mxCell id="r8or9TRa4YRGoBzEQeFI-20" value="getShopData()" style="endArrow=classic;html=1;rounded=0;" edge="1" parent="1" source="r8or9TRa4YRGoBzEQeFI-6" target="r8or9TRa4YRGoBzEQeFI-9">
          <mxGeometry x="-0.0402" y="10" width="50" height="50" relative="1" as="geometry">
            <mxPoint x="200" y="260" as="sourcePoint" />
            <mxPoint x="250" y="210" as="targetPoint" />
            <Array as="points">
              <mxPoint x="220" y="290" />
            </Array>
            <mxPoint as="offset" />
          </mxGeometry>
        </mxCell>
        <mxCell id="r8or9TRa4YRGoBzEQeFI-22" value="showAvaiProducts()" style="endArrow=classic;html=1;rounded=0;" edge="1" parent="1" source="r8or9TRa4YRGoBzEQeFI-6" target="r8or9TRa4YRGoBzEQeFI-5">
          <mxGeometry x="0.0399" y="10" width="50" height="50" relative="1" as="geometry">
            <mxPoint x="200" y="260" as="sourcePoint" />
            <mxPoint x="250" y="210" as="targetPoint" />
            <Array as="points">
              <mxPoint x="310" y="350" />
            </Array>
            <mxPoint as="offset" />
          </mxGeometry>
        </mxCell>
        <mxCell id="r8or9TRa4YRGoBzEQeFI-24" value="confirm()" style="endArrow=classic;html=1;rounded=0;" edge="1" parent="1" source="r8or9TRa4YRGoBzEQeFI-12" target="r8or9TRa4YRGoBzEQeFI-4">
          <mxGeometry width="50" height="50" relative="1" as="geometry">
            <mxPoint x="330" y="260" as="sourcePoint" />
            <mxPoint x="380" y="210" as="targetPoint" />
            <Array as="points">
              <mxPoint x="470" y="410" />
            </Array>
          </mxGeometry>
        </mxCell>
        <mxCell id="r8or9TRa4YRGoBzEQeFI-25" value="σελ&lt;br&gt;ολοκληρωση&amp;nbsp;&lt;br&gt;αγορων" style="text;html=1;align=center;verticalAlign=middle;resizable=0;points=[];autosize=1;strokeColor=none;fillColor=none;" vertex="1" parent="1">
          <mxGeometry x="600" y="-10" width="90" height="60" as="geometry" />
        </mxCell>
        <mxCell id="r8or9TRa4YRGoBzEQeFI-26" value="σελ&amp;nbsp;&lt;br&gt;στοιχεια&amp;nbsp;&lt;br&gt;δρομολ" style="text;html=1;align=center;verticalAlign=middle;resizable=0;points=[];autosize=1;strokeColor=none;fillColor=none;" vertex="1" parent="1">
          <mxGeometry x="720" y="-12" width="70" height="60" as="geometry" />
        </mxCell>
        <mxCell id="r8or9TRa4YRGoBzEQeFI-28" value="fillForm()" style="endArrow=classic;html=1;rounded=0;" edge="1" parent="1" source="r8or9TRa4YRGoBzEQeFI-12" target="r8or9TRa4YRGoBzEQeFI-3">
          <mxGeometry width="50" height="50" relative="1" as="geometry">
            <mxPoint x="350" y="380" as="sourcePoint" />
            <mxPoint x="400" y="330" as="targetPoint" />
            <Array as="points">
              <mxPoint x="360" y="450" />
            </Array>
          </mxGeometry>
        </mxCell>
        <mxCell id="r8or9TRa4YRGoBzEQeFI-32" value="" style="shape=umlLifeline;perimeter=lifelinePerimeter;whiteSpace=wrap;html=1;container=1;dropTarget=0;collapsible=0;recursiveResize=0;outlineConnect=0;portConstraint=eastwest;newEdgeStyle={&quot;edgeStyle&quot;:&quot;elbowEdgeStyle&quot;,&quot;elbow&quot;:&quot;vertical&quot;,&quot;curved&quot;:0,&quot;rounded&quot;:0};participant=umlEntity;size=40;" vertex="1" parent="1">
          <mxGeometry x="530" y="63" width="40" height="897" as="geometry" />
        </mxCell>
        <mxCell id="r8or9TRa4YRGoBzEQeFI-66" value="" style="html=1;points=[];perimeter=orthogonalPerimeter;outlineConnect=0;targetShapes=umlLifeline;portConstraint=eastwest;newEdgeStyle={&quot;edgeStyle&quot;:&quot;elbowEdgeStyle&quot;,&quot;elbow&quot;:&quot;vertical&quot;,&quot;curved&quot;:0,&quot;rounded&quot;:0};" vertex="1" parent="r8or9TRa4YRGoBzEQeFI-32">
          <mxGeometry x="15" y="297" width="10" height="183" as="geometry" />
        </mxCell>
        <mxCell id="r8or9TRa4YRGoBzEQeFI-34" value="addToCart()" style="endArrow=classic;html=1;rounded=0;" edge="1" parent="1" source="r8or9TRa4YRGoBzEQeFI-5" target="r8or9TRa4YRGoBzEQeFI-32">
          <mxGeometry width="50" height="50" relative="1" as="geometry">
            <mxPoint x="500" y="310" as="sourcePoint" />
            <mxPoint x="550" y="260" as="targetPoint" />
            <Array as="points">
              <mxPoint x="500" y="360" />
            </Array>
          </mxGeometry>
        </mxCell>
        <mxCell id="r8or9TRa4YRGoBzEQeFI-36" value="καλαθι" style="text;html=1;align=center;verticalAlign=middle;resizable=0;points=[];autosize=1;strokeColor=none;fillColor=none;" vertex="1" parent="1">
          <mxGeometry x="520" y="20" width="60" height="30" as="geometry" />
        </mxCell>
        <mxCell id="r8or9TRa4YRGoBzEQeFI-37" value="showConfirm()" style="endArrow=classic;html=1;rounded=0;" edge="1" parent="1" source="r8or9TRa4YRGoBzEQeFI-32" target="r8or9TRa4YRGoBzEQeFI-4">
          <mxGeometry x="-0.0449" y="10" width="50" height="50" relative="1" as="geometry">
            <mxPoint x="550" y="310" as="sourcePoint" />
            <mxPoint x="550" y="260" as="targetPoint" />
            <Array as="points">
              <mxPoint x="610" y="380" />
            </Array>
            <mxPoint as="offset" />
          </mxGeometry>
        </mxCell>
        <mxCell id="r8or9TRa4YRGoBzEQeFI-38" value="showForm()" style="endArrow=classic;html=1;rounded=0;" edge="1" parent="1" source="r8or9TRa4YRGoBzEQeFI-4" target="r8or9TRa4YRGoBzEQeFI-3">
          <mxGeometry x="0.0037" width="50" height="50" relative="1" as="geometry">
            <mxPoint x="500" y="310" as="sourcePoint" />
            <mxPoint x="550" y="260" as="targetPoint" />
            <Array as="points">
              <mxPoint x="690" y="430" />
            </Array>
            <mxPoint as="offset" />
          </mxGeometry>
        </mxCell>
        <mxCell id="r8or9TRa4YRGoBzEQeFI-39" value="ALT1" style="shape=umlFrame;whiteSpace=wrap;html=1;pointerEvents=0;" vertex="1" parent="1">
          <mxGeometry x="105" y="470" width="870" height="450" as="geometry" />
        </mxCell>
        <mxCell id="r8or9TRa4YRGoBzEQeFI-40" value="info&lt;br&gt;valid" style="text;html=1;align=center;verticalAlign=middle;resizable=0;points=[];autosize=1;strokeColor=none;fillColor=none;" vertex="1" parent="1">
          <mxGeometry x="180" y="500" width="50" height="40" as="geometry" />
        </mxCell>
        <mxCell id="r8or9TRa4YRGoBzEQeFI-41" value="getCartData()" style="endArrow=classic;html=1;rounded=0;" edge="1" parent="1" source="r8or9TRa4YRGoBzEQeFI-3" target="r8or9TRa4YRGoBzEQeFI-32">
          <mxGeometry x="0.0708" y="-10" width="50" height="50" relative="1" as="geometry">
            <mxPoint x="710" y="310" as="sourcePoint" />
            <mxPoint x="760" y="260" as="targetPoint" />
            <Array as="points">
              <mxPoint x="650" y="520" />
            </Array>
            <mxPoint as="offset" />
          </mxGeometry>
        </mxCell>
        <mxCell id="r8or9TRa4YRGoBzEQeFI-42" value="σελ&lt;br&gt;ολοκληρωση&lt;br&gt;παραγγελιας" style="text;html=1;align=center;verticalAlign=middle;resizable=0;points=[];autosize=1;strokeColor=none;fillColor=none;" vertex="1" parent="1">
          <mxGeometry x="820" y="-3.5" width="90" height="60" as="geometry" />
        </mxCell>
        <mxCell id="r8or9TRa4YRGoBzEQeFI-43" value="showPurchase()" style="endArrow=classic;html=1;rounded=0;" edge="1" parent="1" target="r8or9TRa4YRGoBzEQeFI-2">
          <mxGeometry width="50" height="50" relative="1" as="geometry">
            <mxPoint x="750" y="560" as="sourcePoint" />
            <mxPoint x="760" y="400" as="targetPoint" />
            <Array as="points" />
          </mxGeometry>
        </mxCell>
        <mxCell id="r8or9TRa4YRGoBzEQeFI-44" value="confirm()" style="endArrow=classic;html=1;rounded=0;" edge="1" parent="1" source="r8or9TRa4YRGoBzEQeFI-12">
          <mxGeometry width="50" height="50" relative="1" as="geometry">
            <mxPoint x="280" y="600" as="sourcePoint" />
            <mxPoint x="866" y="600" as="targetPoint" />
            <Array as="points">
              <mxPoint x="701" y="600" />
            </Array>
          </mxGeometry>
        </mxCell>
        <mxCell id="r8or9TRa4YRGoBzEQeFI-45" value="Pay()" style="endArrow=classic;html=1;rounded=0;" edge="1" parent="1" source="r8or9TRa4YRGoBzEQeFI-2" target="r8or9TRa4YRGoBzEQeFI-2">
          <mxGeometry y="10" width="50" height="50" relative="1" as="geometry">
            <mxPoint x="660" y="510" as="sourcePoint" />
            <mxPoint x="710" y="460" as="targetPoint" />
            <Array as="points">
              <mxPoint x="890" y="620" />
              <mxPoint x="910" y="620" />
              <mxPoint x="910" y="640" />
            </Array>
            <mxPoint as="offset" />
          </mxGeometry>
        </mxCell>
        <mxCell id="r8or9TRa4YRGoBzEQeFI-46" value="ALT2" style="shape=umlFrame;whiteSpace=wrap;html=1;pointerEvents=0;" vertex="1" parent="1">
          <mxGeometry x="120" y="610" width="840" height="130" as="geometry" />
        </mxCell>
        <mxCell id="r8or9TRa4YRGoBzEQeFI-47" value="" style="endArrow=none;dashed=1;html=1;rounded=0;exitX=0;exitY=0.543;exitDx=0;exitDy=0;exitPerimeter=0;entryX=1;entryY=0.543;entryDx=0;entryDy=0;entryPerimeter=0;dashPattern=8 8;" edge="1" parent="1" source="r8or9TRa4YRGoBzEQeFI-46" target="r8or9TRa4YRGoBzEQeFI-46">
          <mxGeometry width="50" height="50" relative="1" as="geometry">
            <mxPoint x="460" y="580" as="sourcePoint" />
            <mxPoint x="510" y="530" as="targetPoint" />
          </mxGeometry>
        </mxCell>
        <mxCell id="r8or9TRa4YRGoBzEQeFI-48" value="Client confirms&lt;br&gt;" style="text;html=1;align=center;verticalAlign=middle;resizable=0;points=[];autosize=1;strokeColor=none;fillColor=none;" vertex="1" parent="1">
          <mxGeometry x="160" y="628" width="100" height="30" as="geometry" />
        </mxCell>
        <mxCell id="r8or9TRa4YRGoBzEQeFI-49" value="Client doesnt confirm" style="text;html=1;align=center;verticalAlign=middle;resizable=0;points=[];autosize=1;strokeColor=none;fillColor=none;" vertex="1" parent="1">
          <mxGeometry x="120" y="690" width="140" height="30" as="geometry" />
        </mxCell>
        <mxCell id="r8or9TRa4YRGoBzEQeFI-50" value="" style="endArrow=classic;html=1;rounded=0;" edge="1" parent="1" source="r8or9TRa4YRGoBzEQeFI-2" target="r8or9TRa4YRGoBzEQeFI-6">
          <mxGeometry width="50" height="50" relative="1" as="geometry">
            <mxPoint x="690" y="700" as="sourcePoint" />
            <mxPoint x="740" y="650" as="targetPoint" />
            <Array as="points">
              <mxPoint x="570" y="720" />
            </Array>
          </mxGeometry>
        </mxCell>
        <mxCell id="r8or9TRa4YRGoBzEQeFI-51" value="showShopList()" style="edgeLabel;html=1;align=center;verticalAlign=middle;resizable=0;points=[];" vertex="1" connectable="0" parent="r8or9TRa4YRGoBzEQeFI-50">
          <mxGeometry x="-0.0029" relative="1" as="geometry">
            <mxPoint x="15" y="-10" as="offset" />
          </mxGeometry>
        </mxCell>
        <mxCell id="r8or9TRa4YRGoBzEQeFI-52" value="" style="endArrow=none;dashed=1;html=1;dashPattern=8 8;strokeWidth=2;rounded=0;exitX=-0.004;exitY=0.685;exitDx=0;exitDy=0;exitPerimeter=0;entryX=1;entryY=0.684;entryDx=0;entryDy=0;entryPerimeter=0;" edge="1" parent="1" source="r8or9TRa4YRGoBzEQeFI-39" target="r8or9TRa4YRGoBzEQeFI-39">
          <mxGeometry width="50" height="50" relative="1" as="geometry">
            <mxPoint x="610" y="660" as="sourcePoint" />
            <mxPoint x="1019.7646915211398" y="780" as="targetPoint" />
          </mxGeometry>
        </mxCell>
        <mxCell id="r8or9TRa4YRGoBzEQeFI-53" value="info&lt;br&gt;invalid" style="text;html=1;align=center;verticalAlign=middle;resizable=0;points=[];autosize=1;strokeColor=none;fillColor=none;" vertex="1" parent="1">
          <mxGeometry x="180" y="807" width="60" height="40" as="geometry" />
        </mxCell>
        <mxCell id="r8or9TRa4YRGoBzEQeFI-54" value="showForm()" style="endArrow=classic;html=1;rounded=0;" edge="1" parent="1" source="r8or9TRa4YRGoBzEQeFI-3" target="r8or9TRa4YRGoBzEQeFI-3">
          <mxGeometry x="0.0987" y="30" width="50" height="50" relative="1" as="geometry">
            <mxPoint x="630" y="660" as="sourcePoint" />
            <mxPoint x="680" y="610" as="targetPoint" />
            <Array as="points">
              <mxPoint x="780" y="800" />
              <mxPoint x="780" y="830" />
            </Array>
            <mxPoint as="offset" />
          </mxGeometry>
        </mxCell>
        <mxCell id="r8or9TRa4YRGoBzEQeFI-56" value="getBalance()" style="endArrow=classic;html=1;rounded=0;" edge="1" parent="1" source="r8or9TRa4YRGoBzEQeFI-6" target="r8or9TRa4YRGoBzEQeFI-11">
          <mxGeometry width="50" height="50" relative="1" as="geometry">
            <mxPoint x="260" y="200" as="sourcePoint" />
            <mxPoint x="310" y="150" as="targetPoint" />
            <Array as="points">
              <mxPoint x="260" y="200" />
            </Array>
          </mxGeometry>
        </mxCell>
        <mxCell id="r8or9TRa4YRGoBzEQeFI-57" value="retBalance()" style="endArrow=classic;html=1;rounded=0;strokeColor=default;dashed=1;" edge="1" parent="1" source="r8or9TRa4YRGoBzEQeFI-11" target="r8or9TRa4YRGoBzEQeFI-6">
          <mxGeometry x="-0.0334" width="50" height="50" relative="1" as="geometry">
            <mxPoint x="260" y="200" as="sourcePoint" />
            <mxPoint x="310" y="150" as="targetPoint" />
            <Array as="points">
              <mxPoint x="260" y="220" />
            </Array>
            <mxPoint as="offset" />
          </mxGeometry>
        </mxCell>
        <mxCell id="r8or9TRa4YRGoBzEQeFI-58" value="retShopData()" style="endArrow=classic;html=1;rounded=0;dashed=1;" edge="1" parent="1" source="r8or9TRa4YRGoBzEQeFI-9" target="r8or9TRa4YRGoBzEQeFI-6">
          <mxGeometry x="0.0402" y="-10" width="50" height="50" relative="1" as="geometry">
            <mxPoint x="200" y="320" as="sourcePoint" />
            <mxPoint x="250" y="270" as="targetPoint" />
            <Array as="points">
              <mxPoint x="230" y="320" />
            </Array>
            <mxPoint as="offset" />
          </mxGeometry>
        </mxCell>
        <mxCell id="r8or9TRa4YRGoBzEQeFI-59" value="showShopList()" style="endArrow=classic;html=1;rounded=0;" edge="1" parent="1" source="r8or9TRa4YRGoBzEQeFI-6" target="r8or9TRa4YRGoBzEQeFI-6">
          <mxGeometry y="30" width="50" height="50" relative="1" as="geometry">
            <mxPoint x="200" y="320" as="sourcePoint" />
            <mxPoint x="250" y="270" as="targetPoint" />
            <Array as="points">
              <mxPoint x="200" y="240" />
              <mxPoint x="200" y="260" />
            </Array>
            <mxPoint as="offset" />
          </mxGeometry>
        </mxCell>
        <mxCell id="r8or9TRa4YRGoBzEQeFI-60" value="retCartData()" style="endArrow=classic;html=1;rounded=0;dashed=1;" edge="1" parent="1" source="r8or9TRa4YRGoBzEQeFI-32" target="r8or9TRa4YRGoBzEQeFI-3">
          <mxGeometry width="50" height="50" relative="1" as="geometry">
            <mxPoint x="730" y="440" as="sourcePoint" />
            <mxPoint x="780" y="390" as="targetPoint" />
            <Array as="points">
              <mxPoint x="650" y="540" />
            </Array>
          </mxGeometry>
        </mxCell>
        <mxCell id="r8or9TRa4YRGoBzEQeFI-69" value="" style="html=1;points=[];perimeter=orthogonalPerimeter;outlineConnect=0;targetShapes=umlLifeline;portConstraint=eastwest;newEdgeStyle={&quot;edgeStyle&quot;:&quot;elbowEdgeStyle&quot;,&quot;elbow&quot;:&quot;vertical&quot;,&quot;curved&quot;:0,&quot;rounded&quot;:0};" vertex="1" parent="1">
          <mxGeometry x="860" y="560" width="10" height="80" as="geometry" />
        </mxCell>
      </root>
    </mxGraphModel>
  </diagram>
</mxfile>
